<?xml version="1.0" encoding="UTF-8" standalone="no"?>
<svg
   viewBox="0 0 500 500"
   version="1.1"
   id="svg20"
   sodipodi:docname="favicon.svg"
   inkscape:version="1.4 (86a8ad7, 2024-10-11)"
   xmlns:inkscape="http://www.inkscape.org/namespaces/inkscape"
   xmlns:sodipodi="http://sodipodi.sourceforge.net/DTD/sodipodi-0.dtd"
   xmlns="http://www.w3.org/2000/svg"
   xmlns:svg="http://www.w3.org/2000/svg">
  <sodipodi:namedview
     id="namedview20"
     pagecolor="#ffffff"
     bordercolor="#111111"
     borderopacity="1"
     inkscape:showpageshadow="0"
     inkscape:pageopacity="0"
     inkscape:pagecheckerboard="1"
     inkscape:deskcolor="#d1d1d1"
     inkscape:zoom="1.614"
     inkscape:cx="250"
     inkscape:cy="250"
     inkscape:window-width="1920"
     inkscape:window-height="1009"
     inkscape:window-x="-8"
     inkscape:window-y="-8"
     inkscape:window-maximized="1"
     inkscape:current-layer="svg20" />
  <defs
     id="defs2">
    <linearGradient
       id="bg"
       x1="0%"
       y1="0%"
       x2="100%"
       y2="100%">
      <stop
         offset="0%"
         style="stop-color:#003399;stop-opacity:1"
         id="stop1" />
      <stop
         offset="100%"
         style="stop-color:#002266;stop-opacity:1"
         id="stop2" />
    </linearGradient>
  </defs>
  <!-- Background circle with EU blue -->
  <rect
     width="500"
     height="500"
     rx="250"
     fill="url(#bg)"
     id="rect2" />
  <!-- EU Stars ring (12 stars like EU flag) -->
  <g
     fill="#ffd700"
     stroke="#ff6b35"
     stroke-width="1"
     id="g17"
     transform="matrix(1.1238205,0,0,1.2386308,-20.422278,-84.277096)">
    <!-- Top stars -->
    <path
       d="m 125,100 3.09,9.51 h 10 l -8.09,5.88 3.09,9.51 -8.09,-5.88 -8.09,5.88 3.09,-9.51 -8.09,-5.88 h 10 z"
       id="path2" />
    <path
       d="m 200,100 3.09,9.51 h 10 l -8.09,5.88 3.09,9.51 -8.09,-5.88 -8.09,5.88 3.09,-9.51 -8.09,-5.88 h 10 z"
       id="path3" />
    <path
       d="m 275,100 3.09,9.51 h 10 l -8.09,5.88 3.09,9.51 -8.09,-5.88 -8.09,5.88 3.09,-9.51 -8.09,-5.88 h 10 z"
       id="path4" />
    <path
       d="m 350,100 3.09,9.51 h 10 l -8.09,5.88 3.09,9.51 -8.09,-5.88 -8.09,5.88 3.09,-9.51 -8.09,-5.88 h 10 z"
       id="path5" />
    <!-- Right stars -->
    <path
       d="m 425,175 3.09,9.51 h 10 l -8.09,5.88 3.09,9.51 -8.09,-5.88 -8.09,5.88 3.09,-9.51 -8.09,-5.88 h 10 z"
       id="path7" />
    <path
       d="m 425,250 3.09,9.51 h 10 l -8.09,5.88 3.09,9.51 -8.09,-5.88 -8.09,5.88 3.09,-9.51 -8.09,-5.88 h 10 z"
       id="path8" />
    <path
       d="m 425,325 3.09,9.51 h 10 l -8.09,5.88 3.09,9.51 -8.09,-5.88 -8.09,5.88 3.09,-9.51 -8.09,-5.88 h 10 z"
       id="path9" />
    <!-- Bottom stars -->
    <path
       d="m 350,400 3.09,9.51 h 10 l -8.09,5.88 3.09,9.51 -8.09,-5.88 -8.09,5.88 3.09,-9.51 -8.09,-5.88 h 10 z"
       id="path11" />
    <path
       d="m 275,400 3.09,9.51 h 10 l -8.09,5.88 3.09,9.51 -8.09,-5.88 -8.09,5.88 3.09,-9.51 -8.09,-5.88 h 10 z"
       id="path12" />
    <path
       d="m 200,400 3.09,9.51 h 10 l -8.09,5.88 3.09,9.51 -8.09,-5.88 -8.09,5.88 3.09,-9.51 -8.09,-5.88 h 10 z"
       id="path13" />
    <path
       d="m 125,400 3.09,9.51 h 10 l -8.09,5.88 3.09,9.51 -8.09,-5.88 -8.09,5.88 3.09,-9.51 -8.09,-5.88 h 10 z"
       id="path14" />
    <!-- Left stars -->
    <path
       d="m 75,325 3.09,9.51 h 10 l -8.09,5.88 3.09,9.51 -8.09,-5.88 -8.09,5.88 3.09,-9.51 -8.09,-5.88 h 10 z"
       id="path15" />
    <path
       d="m 75,250 3.09,9.51 h 10 l -8.09,5.88 3.09,9.51 -8.09,-5.88 -8.09,5.88 3.09,-9.51 -8.09,-5.88 h 10 z"
       id="path16" />
    <path
       d="m 75,175 3.09,9.51 h 10 l -8.09,5.88 3.09,9.51 -8.09,-5.88 -8.09,5.88 3.09,-9.51 -8.09,-5.88 h 10 z"
       id="path17" />
  </g>
  <!-- Inner circle for text -->
  <ellipse
     cx="52.774593"
     cy="319.57803"
     fill="#003399"
     stroke="#ffd700"
     stroke-width="3.96133"
     id="circle17"
     rx="179.1664"
     ry="224.21445"
     transform="matrix(1,0,0.65107113,0.75901672,0,0)" />
  <!-- EU ACT Text -->
  <text
     x="236.74567"
     y="317.35837"
     text-anchor="middle"
     fill="#ffffff"
     font-family="Arial, sans-serif"
     font-size="205.905px"
     font-weight="bold"
     id="text17"
     transform="scale(1.0113456,0.98878167)"
     style="stroke-width:6.43456">AI</text>
  <!-- AI indicator (small brain icon) -->
</svg>
