<?xml version="1.0" encoding="UTF-8"?>
<svg data-bbox="25.738 124.737 449.923 160.093" xmlns="http://www.w3.org/2000/svg" viewBox="25 120 450 170" height="170mm" width="450mm" data-type="shape">
    <g>
        <path d="M25.738 222.395V159.96h29.927v124.87H25.738zm85.406 4.902c-.137-31.643-.253-60.783-.258-64.757l-.01-7.223-25.95-.516-25.951-.516-13.744-14.448-13.743-14.448 79.683-.264c43.825-.146 115.415-.146 159.087 0l79.404.264-13.966 14.706L321.73 154.8h-40.062v130.03h-30.96V154.8H141.32v130.03h-29.927zm224.187-7.42v-64.952l-3.59-.32-3.59-.32 11.05-11.768 11.049-11.769 11.076 11.769 11.077 11.768-3.315.516-3.314.516v99.069l20.123-.088c17.773-.079 20.817-.343 26.056-2.266 28.806-10.572 41.51-41.898 28.056-69.177-9.186-18.623-26.24-27.991-51.037-28.037l-9.825-.018-8.759-9.03c-4.817-4.966-11.309-11.73-14.426-15.031l-5.668-6.002 30.443.385c28.366.359 30.937.547 37.668 2.751 14.137 4.63 22.925 10.036 33.632 20.691 8.712 8.668 10.539 11.147 15.248 20.684 6.385 12.93 8.352 21.435 8.376 36.212.024 13.066-2.297 23.282-7.767 34.22-11.247 22.49-29.797 37.445-53.5 43.127-7.448 1.786-12.278 2.009-43.718 2.015l-35.346.007zM25.738 140.353c0-7.946.131-14.448.293-14.448.16 0 6.465 6.502 14.008 14.448L53.754 154.8H25.738Z"/>
    </g>
</svg>
